<?xml version="1.0" encoding="utf-8"?>
<svg viewBox="44.7746 99.9437 380 92.7435" xmlns="http://www.w3.org/2000/svg">
  <g opacity="1" transform="matrix(1, 0, 0, 1, -338.225377354404, -113.83456590525157)">
    <svg width="92.7435" height="92.7435" x="383" y="213.7783" version="1.1" preserveAspectRatio="none" viewBox="0 0 92.7435 92.7435">
      <defs>
        <rect x="0" y="0" width="92.7435" height="92.7435" rx="150px" ry="150px" id="id-8dbb16bd-63b4-4d03-92af-dda2ccf98fb63WKIowxM31720311362489"/>
      </defs>
      <rect x="0" y="0" width="92.7435" height="92.7435" rx="150px" ry="150px" class="icon18dbb16bd-63b4-4d03-92af-dda2ccf98fb6 shapeStroke-str8dbb16bd-63b4-4d03-92af-dda2ccf98fb6" style="stroke-width: 0; fill: rgb(227, 95, 33); stroke: rgb(227, 95, 33);"/>
    </svg>
  </g>
  <g opacity="1" transform="matrix(1, 0, 0, 1, -338.225377354404, -113.83456590525157)">
    <svg width="38.9523" height="64.9205" x="409.8956" y="227.6898" version="1.1" preserveAspectRatio="none" viewBox="52 20 96 160">
      <g transform="matrix(1 0 0 1 0 0)">
        <g>
          <path d="M116 20h32v32h-32V20zm0 64V52H52v64h32v32H52v32h32v-32h64V84h-32zm0 0v32H84V84h32z" fill-rule="evenodd" clip-rule="evenodd" data-color="1" class="background8dbb16bd-63b4-4d03-92af-dda2ccf98fb6" style="fill: rgb(255, 255, 255);"/>
        </g>
      </g>
    </svg>
  </g>
  <g opacity="1" transform="matrix(1, 0, 0, 1, -338.225377354404, -113.83456590525157)">
    <svg width="272.9882" height="71.3411" x="490.0118" y="224.4795" version="1.1" preserveAspectRatio="none" viewBox="2.36 -28.56 150 39.2">
      <g transform="matrix(1 0 0 1 0 0)" class="companyName8dbb16bd-63b4-4d03-92af-dda2ccf98fb6" style="fill: rgb(238, 248, 247);">
        <path id="id-8dbb16bd-63b4-4d03-92af-dda2ccf98fb6D6z1nYkh5" d="M25.84-28.08L34.16-28.08L34.16 0L27.32 0L27.32-17.56L21.24 0L15.32 0L9.20-17.60L9.20 0L2.36 0L2.36-28.08L10.72-28.08L18.36-8.52L25.84-28.08Z M37.20-22.32L44.84-22.32L50.20-8.64L55.20-22.32L62.76-22.32L48.84 10.64L41.32 10.64L46.56-0.84L37.20-22.32Z M78.76-28.56Q84.16-28.56 87.70-25.72Q91.24-22.88 92.28-18.04L92.28-18.04L85.04-18.04Q84.24-20 82.58-21.12Q80.92-22.24 78.64-22.24L78.64-22.24Q75.64-22.24 73.80-20.04Q71.96-17.84 71.96-14.16L71.96-14.16Q71.96-10.48 73.80-8.30Q75.64-6.12 78.64-6.12L78.64-6.12Q80.92-6.12 82.58-7.24Q84.24-8.36 85.04-10.28L85.04-10.28L92.28-10.28Q91.24-5.48 87.70-2.62Q84.16 0.24 78.76 0.24L78.76 0.24Q74.64 0.24 71.52-1.58Q68.40-3.40 66.70-6.68Q65-9.96 65-14.16L65-14.16Q65-18.36 66.70-21.64Q68.40-24.92 71.52-26.74Q74.64-28.56 78.76-28.56L78.76-28.56Z M116.20 0L114.44-5.16L103.84-5.16L102.08 0L94.88 0L105.24-28.08L113.12-28.08L123.48 0L116.20 0ZM105.60-10.36L112.68-10.36L109.16-20.76L105.60-10.36Z M152.36-14.20Q152.36-10.04 150.58-6.82Q148.80-3.60 145.46-1.80Q142.12 0 137.60 0L137.60 0L126.92 0L126.92-28.28L137.60-28.28Q142.16-28.28 145.48-26.52Q148.80-24.76 150.58-21.56Q152.36-18.36 152.36-14.20L152.36-14.20ZM137-6.12Q141-6.12 143.22-8.24Q145.44-10.36 145.44-14.20L145.44-14.20Q145.44-18.04 143.22-20.16Q141-22.28 137-22.28L137-22.28L133.76-22.28L133.76-6.12L137-6.12Z" style="fill: rgb(227, 95, 33);"/>
      </g>
    </svg>
  </g>
</svg>