<?xml version="1.0" encoding="utf-8"?>
<svg viewBox="44.7746 99.9437 92.7435 92.7435" xmlns="http://www.w3.org/2000/svg">
  <g opacity="1" transform="matrix(1, 0, 0, 1, -338.225377354404, -113.83456590525157)">
    <svg width="92.7435" height="92.7435" x="383" y="213.7783" version="1.1" preserveAspectRatio="none" viewBox="0 0 92.7435 92.7435">
      <defs>
        <rect x="0" y="0" width="92.7435" height="92.7435" rx="150px" ry="150px" id="id-8dbb16bd-63b4-4d03-92af-dda2ccf98fb63WKIowxM31720311362489"/>
      </defs>
      <rect x="0" y="0" width="92.7435" height="92.7435" rx="150px" ry="150px" class="icon18dbb16bd-63b4-4d03-92af-dda2ccf98fb6 shapeStroke-str8dbb16bd-63b4-4d03-92af-dda2ccf98fb6" style="stroke-width: 0; fill: rgb(227, 95, 33); stroke: rgb(227, 95, 33);"/>
    </svg>
  </g>
  <g opacity="1" transform="matrix(1, 0, 0, 1, -338.225377354404, -113.83456590525157)">
    <svg width="38.9523" height="64.9205" x="409.8956" y="227.6898" version="1.1" preserveAspectRatio="none" viewBox="52 20 96 160">
      <g transform="matrix(1 0 0 1 0 0)">
        <g>
          <path d="M116 20h32v32h-32V20zm0 64V52H52v64h32v32H52v32h32v-32h64V84h-32zm0 0v32H84V84h32z" fill-rule="evenodd" clip-rule="evenodd" data-color="1" class="background8dbb16bd-63b4-4d03-92af-dda2ccf98fb6" style="fill: rgb(255, 255, 255);"/>
        </g>
      </g>
    </svg>
  </g>
</svg>